<svg width="375" height="812" viewBox="0 0 375 812" fill="none"
    xmlns="http://www.w3.org/2000/svg">
    <rect width="375" height="812" fill="url(#paint0_linear_101_3)"/>
    <g clip-path="url(#clip0_101_3)">
        <path d="M197.601 370.003C182.474 370.003 170.18 357.709 170.18 342.583C170.18 327.456 182.474 315.162 197.601 315.162C212.727 315.162 225.021 327.456 225.021 342.583C225.021 357.709 212.727 370.003 197.601 370.003ZM197.601 322.138C186.273 322.138 177.087 331.324 177.087 342.652C177.087 353.979 186.273 363.165 197.601 363.165C208.928 363.165 218.114 353.979 218.114 342.652C218.114 331.324 208.928 322.138 197.601 322.138Z" fill="#5D5FEF"/>
        <path d="M229.856 361.369C229.372 361.369 228.82 361.231 228.336 361.024C226.61 360.195 225.919 358.123 226.748 356.396C228.958 351.907 230.132 347.003 230.132 341.961C230.132 324.003 215.558 309.429 197.601 309.429C179.643 309.429 165.069 324.003 165.069 341.961C165.069 347.072 166.174 351.907 168.453 356.396C169.282 358.123 168.592 360.195 166.865 361.024C165.138 361.853 163.066 361.162 162.237 359.435C159.543 353.979 158.162 348.039 158.162 341.892C158.231 320.204 175.913 302.523 197.601 302.523C219.357 302.523 237.039 320.204 237.039 341.961C237.039 348.108 235.658 353.979 232.964 359.505C232.342 360.679 231.099 361.369 229.856 361.369Z" fill="white"/>
        <path d="M197.6 358.607C206.412 358.607 213.555 351.463 213.555 342.652C213.555 333.84 206.412 326.697 197.6 326.697C188.789 326.697 181.646 333.84 181.646 342.652C181.646 351.463 188.789 358.607 197.6 358.607Z" fill="white"/>
        <path d="M186.342 344.378C185.375 344.378 184.616 343.619 184.616 342.652C184.616 335.468 190.418 329.667 197.601 329.667C198.568 329.667 199.327 330.426 199.327 331.393C199.327 332.36 198.568 333.12 197.601 333.12C192.351 333.12 188.069 337.402 188.069 342.652C188.069 343.619 187.309 344.378 186.342 344.378Z" fill="#995ED1"/>
        <path d="M164.793 361.715H141.862L132.054 321.447L119.898 335.054L108.571 321.171L93.7898 361.715H76.4535C74.5195 361.715 73 360.195 73 358.261C73 356.327 74.5195 354.808 76.4535 354.808H88.955L106.222 307.357L120.174 324.417L135.646 307.081L147.318 354.808H164.862C166.796 354.808 168.315 356.327 168.315 358.261C168.315 360.195 166.727 361.715 164.793 361.715Z" fill="white"/>
        <path d="M198.589 349.177C201.123 349.177 203.177 347.123 203.177 344.589C203.177 342.054 201.123 340 198.589 340C196.054 340 194 342.054 194 344.589C194 347.123 196.054 349.177 198.589 349.177Z" fill="#995ED1"/>
        <path d="M240.631 344.793C239.94 343.273 239.595 342.237 239.664 341.754C239.733 340.994 240.009 340.441 240.7 339.958C241.321 339.474 242.012 339.267 242.841 339.267C243.601 339.267 244.153 339.474 244.568 339.889C244.982 340.303 245.327 340.994 245.742 341.961L251.82 357.225C254.168 351.838 256.24 346.589 258.036 341.616C258.589 340.096 259.487 339.336 260.73 339.336C261.49 339.336 262.249 339.544 262.871 339.958C263.493 340.372 263.838 340.925 263.907 341.616C263.907 342.375 263.7 343.204 263.354 344.171L255.55 361.369C254.652 363.234 253.408 364.132 251.751 364.132C250.853 364.132 250.093 363.856 249.541 363.372C248.988 362.889 248.435 362.129 247.883 360.955L240.631 344.793Z" fill="white"/>
        <path d="M271.366 333.189C270.261 333.189 269.432 332.844 268.742 332.084C268.12 331.324 267.844 330.357 267.982 329.252C268.189 328.216 268.604 327.456 269.294 326.904C270.054 326.351 270.883 326.075 271.781 326.075C272.955 326.075 273.853 326.42 274.475 327.111C275.096 327.802 275.441 328.7 275.441 329.736C275.441 330.91 275.096 331.739 274.336 332.36C273.646 332.913 272.679 333.189 271.435 333.189H271.366ZM268.811 342.099C268.88 341.201 269.156 340.511 269.709 340.096C270.261 339.682 270.883 339.474 271.643 339.474C272.61 339.474 273.369 339.682 273.853 340.165C274.405 340.649 274.682 341.477 274.682 342.721V348.799V354.808V361.438C274.682 362.405 274.474 363.096 273.991 363.58C273.508 364.063 272.748 364.27 271.712 364.27C270.883 364.27 270.192 364.063 269.64 363.649C269.087 363.234 268.811 362.613 268.811 361.784V342.099Z" fill="white"/>
        <path d="M286.423 353.495C286.562 355.153 287.183 356.535 288.426 357.64C289.67 358.745 291.12 359.366 292.916 359.366C294.781 359.366 296.438 358.883 298.027 357.916C298.787 357.432 299.477 357.225 300.099 357.225C300.79 357.225 301.342 357.501 301.826 358.054C302.309 358.676 302.586 359.297 302.586 359.988C302.586 360.886 302.033 361.715 300.997 362.405C298.856 363.787 296.024 364.547 292.432 364.547C289.186 364.547 286.423 363.372 284.075 361.093C281.796 358.814 280.622 356.051 280.553 352.805C280.553 349.075 281.727 345.898 284.075 343.273C286.423 340.649 289.324 339.336 292.778 339.336C295.817 339.336 298.303 340.303 300.444 342.306C302.517 344.309 303.553 346.52 303.553 349.075C303.553 350.595 303.276 351.7 302.724 352.321C302.171 352.943 301.066 353.288 299.339 353.357C298.856 353.426 298.372 353.426 297.889 353.426C297.405 353.426 296.853 353.426 296.3 353.426H291.673H286.423V353.495ZM292.709 344.171C291.051 344.171 289.601 344.724 288.426 345.898C287.252 347.003 286.562 348.315 286.423 349.835C289.048 349.835 291.327 349.835 293.054 349.766C294.85 349.766 296.231 349.697 297.198 349.628C297.613 349.628 297.82 349.42 297.82 349.144C297.82 347.763 297.336 346.52 296.3 345.622C295.264 344.655 294.09 344.171 292.778 344.171H292.709Z" fill="white"/>
        <path d="M73.4836 375.183L73.4146 372.42C73.4146 372.006 73.4836 371.73 73.7599 371.453C74.0362 371.177 74.3124 371.039 74.7269 371.039H75.3485H75.9701C77.0752 371.039 78.0422 371.039 78.871 371.039C79.6998 371.039 80.4596 371.039 81.0812 371.039H81.6338H82.1173C82.3935 371.039 82.6698 371.108 82.8079 371.315C83.0152 371.523 83.0842 371.799 83.0842 372.075C83.0842 372.835 82.7389 373.249 82.1173 373.249H80.8049H79.1473H76.1082V375.805V378.084H78.1112L81.3575 378.015C81.7028 378.015 81.91 378.153 82.1173 378.36C82.3245 378.568 82.3935 378.844 82.3935 379.189C82.3935 379.949 81.9791 380.294 81.2194 380.294C81.0812 380.294 80.8049 380.294 80.5977 380.294C80.3215 380.294 79.9761 380.294 79.6308 380.294C79.2164 380.294 78.9401 380.294 78.6638 380.294C78.3875 380.294 78.1803 380.294 78.0422 380.294H77.0752H76.1082V382.159V385.198C76.1082 386.027 75.6938 386.441 74.865 386.441C74.3815 386.441 74.0362 386.303 73.829 386.096C73.6218 385.889 73.5527 385.544 73.5527 385.06C73.5527 384.991 73.5527 384.922 73.5527 384.784C73.5527 384.646 73.5527 384.508 73.5527 384.3C73.5527 384.093 73.5527 383.886 73.5527 383.748C73.5527 383.61 73.5527 383.471 73.5527 383.402V382.228V380.985L73.4836 375.183Z" fill="white"/>
        <path d="M86.3995 373.249C85.9161 373.249 85.5707 373.111 85.2944 372.766C85.0182 372.42 84.9491 372.006 84.9491 371.592C85.0182 371.177 85.2254 370.832 85.5017 370.625C85.847 370.417 86.1923 370.279 86.5377 370.279C87.0212 370.279 87.4356 370.417 87.7119 370.694C87.9881 370.97 88.1263 371.384 88.1263 371.799C88.1263 372.282 87.9881 372.697 87.6428 372.904C87.3665 373.111 86.9521 373.249 86.3995 373.249ZM85.2944 377.048C85.2944 376.634 85.4326 376.357 85.7089 376.219C85.9851 376.081 86.1923 375.943 86.5377 375.943C86.9521 375.943 87.2974 376.012 87.5047 376.219C87.7119 376.426 87.85 376.772 87.85 377.324V379.88V382.435V385.267C87.85 385.682 87.7809 385.958 87.5737 386.165C87.3665 386.372 87.0212 386.441 86.6068 386.441C86.2614 386.441 85.9851 386.372 85.7089 386.165C85.5017 385.958 85.3635 385.751 85.3635 385.405V377.048H85.2944Z" fill="white"/>
        <path d="M91.0271 371.246C91.0271 370.901 91.1653 370.556 91.4416 370.348C91.7178 370.141 91.9941 370.003 92.4085 370.003C93.2373 370.003 93.6518 370.486 93.6518 371.384C93.6518 373.387 93.5827 375.321 93.5827 377.186C93.5827 379.051 93.5827 380.778 93.5827 382.435C93.5827 382.643 93.5827 382.85 93.5827 383.126C93.5827 383.402 93.5827 383.679 93.5827 384.024C93.5827 384.369 93.5827 384.646 93.5827 384.853C93.5827 385.06 93.5827 385.198 93.5827 385.267C93.5827 385.613 93.4446 385.889 93.3064 386.096C93.0992 386.303 92.8229 386.372 92.4085 386.441C91.9941 386.441 91.6488 386.372 91.3725 386.096C91.0962 385.82 90.9581 385.336 90.9581 384.715C91.0271 383.541 91.0271 379.051 91.0271 371.246Z" fill="white"/>
        <path d="M96.5527 380.847V378.706V377.532V377.048C96.5527 376.288 96.9671 375.943 97.7959 375.943C98.4175 375.943 98.7629 376.288 98.901 376.91L98.9701 377.739C99.2464 377.186 99.6608 376.703 100.282 376.426C100.904 376.081 101.457 375.943 102.078 375.943C102.838 375.943 103.46 376.15 104.012 376.495C104.565 376.841 104.91 377.324 105.186 377.946C105.532 377.393 106.015 376.91 106.637 376.565C107.258 376.15 107.88 376.012 108.571 375.943C109.883 375.943 110.85 376.288 111.472 377.117C112.093 377.946 112.439 378.982 112.439 380.294V382.574C112.439 382.85 112.439 383.195 112.439 383.679C112.439 384.162 112.439 384.784 112.439 385.544C112.439 386.165 112.024 386.51 111.195 386.51C110.85 386.51 110.574 386.441 110.297 386.234C110.09 386.027 109.952 385.82 109.952 385.474C109.952 383.886 110.021 382.712 110.021 381.883C110.021 381.054 110.021 380.64 110.021 380.64C110.021 378.913 109.4 378.015 108.225 378.015C107.535 378.015 107.051 378.222 106.568 378.637C106.153 379.051 105.877 379.673 105.877 380.432C105.877 380.709 105.877 381.054 105.877 381.468C105.877 381.883 105.877 382.297 105.877 382.85V385.198C105.877 386.027 105.394 386.441 104.565 386.441C103.805 386.441 103.391 386.096 103.391 385.405C103.391 383.886 103.391 382.781 103.391 381.952C103.391 381.123 103.391 380.64 103.391 380.432C103.391 379.742 103.183 379.189 102.838 378.706C102.493 378.222 102.078 378.015 101.457 378.015C99.868 378.015 99.0392 379.12 99.0392 381.33V385.474C99.0392 386.096 98.6247 386.441 97.7268 386.441C97.3815 386.441 97.1052 386.372 96.898 386.165C96.6908 386.027 96.5527 385.751 96.5527 385.405V384.162L96.6217 380.778L96.5527 380.847Z" fill="white"/>
        <path d="M301.757 386.303H111.195C110.574 386.303 110.09 385.82 110.09 385.198C110.09 384.577 110.574 384.093 111.195 384.093H301.757C302.378 384.093 302.862 384.577 302.862 385.198C302.793 385.82 302.309 386.303 301.757 386.303Z" fill="white"/>
        <path d="M172 314.429L162.182 302L160.061 330.191L172 314.429Z" fill="white"/>
        <path d="M223 314.429L232.818 302L234.939 330.191L223 314.429Z" fill="white"/>
    </g>
    <defs>
        <linearGradient id="paint0_linear_101_3" x1="-111.5" y1="-276.5" x2="375" y2="736.5" gradientUnits="userSpaceOnUse">
            <stop stop-color="#EF5DA8"/>
            <stop offset="1" stop-color="#5D5FEF"/>
        </linearGradient>
        <clipPath id="clip0_101_3">
            <rect width="230" height="230" fill="white" transform="translate(73 230)"/>
        </clipPath>
    </defs>
</svg>
